<?xml version="1.0" standalone="no"?>
<!DOCTYPE svg PUBLIC "-//W3C//DTD SVG 20010904//EN"
 "http://www.w3.org/TR/2001/REC-SVG-20010904/DTD/svg10.dtd">
<svg version="1.0" xmlns="http://www.w3.org/2000/svg"
 width="200.000000pt" height="200.000000pt" viewBox="0 0 200.000000 200.000000"
 preserveAspectRatio="xMidYMid meet">

<g transform="translate(0.000000,200.000000) scale(0.100000,-0.100000)"
fill="#000000" stroke="none">
<path d="M1250 1506 l0 -116 -42 0 c-68 0 -172 -26 -245 -61 -97 -46 -195
-147 -251 -259 -44 -90 -86 -232 -80 -276 3 -24 8 -20 52 46 63 92 149 177
214 213 69 38 191 67 278 67 l73 0 3 -121 3 -120 243 182 c133 100 242 185
242 189 0 6 -440 341 -477 364 -10 6 -13 -19 -13 -108z"/>
<path d="M305 1369 c-56 -16 -55 -6 -55 -496 0 -435 1 -454 19 -472 11 -11 35
-23 53 -26 18 -3 286 -5 595 -3 l562 3 23 23 c22 22 23 29 26 247 2 124 0 225
-3 225 -4 0 -40 -27 -81 -61 l-74 -60 0 -115 0 -114 -485 0 -485 0 0 355 0
355 111 0 111 0 70 65 c39 36 74 65 79 65 5 0 9 5 9 10 0 13 -432 12 -475 -1z"/>
</g>
</svg>
